# xmcd
#
# Track frame offsets:
#	183
#	17933
#	34115
#
# Disc length: 680 seconds
#
# Revision: 0
# Processed by: cddbd v1.5.2PL0 Copyright (c) Steve Scherf et al.
# Submitted via: audiograbber 1.83.01
#
DISCID=1d02a603
DTITLE=Stoppok - Wie tief kann man sehn
DYEAR=2004
DGENRE=Alternative Rock
TTITLE0=Wie tief kann man sehn
TTITLE1=So gemeint
TTITLE2=Dumpfbacke
EXTD=
EXTT0=
EXTT1=
EXTT2=
PLAYORDER=
